<svg width="212" height="207" viewBox="0 0 212 207" fill="none" xmlns="http://www.w3.org/2000/svg">
<g filter="url(#filter0_d)">
<path fill-rule="evenodd" clip-rule="evenodd" d="M200 96.4999L199.997 106.15L199.99 110.147L199.977 113.213L199.96 115.797L199.937 118.074L199.91 120.13L199.877 122.021L199.84 123.78L199.797 125.43L199.75 126.991L199.697 128.473L199.64 129.888L199.577 131.245L199.51 132.548L199.437 133.804L199.359 135.018L199.277 136.192L199.189 137.331L199.096 138.437L198.998 139.512L198.895 140.559L198.788 141.58L198.675 142.576L198.556 143.548L198.433 144.499L198.305 145.428L198.172 146.338L198.033 147.23L197.89 148.103L197.741 148.959L197.588 149.799L197.429 150.623L197.265 151.432L197.096 152.227L196.921 153.008L196.742 153.775L196.557 154.53L196.367 155.272L196.172 156.001L195.972 156.719L195.766 157.426L195.556 158.121L195.34 158.806L195.118 159.48L194.892 160.144L194.66 160.797L194.423 161.441L194.18 162.076L193.933 162.701L193.679 163.317L193.421 163.924L193.157 164.523L192.887 165.112L192.613 165.694L192.332 166.267L192.046 166.832L191.755 167.389L191.458 167.938L191.156 168.479L190.848 169.013L190.534 169.539L190.215 170.058L189.89 170.569L189.56 171.074L189.224 171.571L188.881 172.061L188.534 172.545L188.18 173.021L187.821 173.491L187.455 173.954L187.084 174.41L186.707 174.86L186.323 175.304L185.934 175.741L185.539 176.172L185.137 176.596L184.73 177.014L184.316 177.427L183.895 177.833L183.469 178.232L183.036 178.626L182.597 179.014L182.151 179.396L181.698 179.772L181.239 180.143L180.774 180.507L180.301 180.866L179.822 181.219L179.335 181.566L178.842 181.908L178.342 182.244L177.834 182.575L177.32 182.9L176.798 183.219L176.268 183.533L175.731 183.841L175.186 184.144L174.634 184.442L174.074 184.734L173.505 185.021L172.929 185.303L172.344 185.579L171.751 185.85L171.149 186.115L170.539 186.376L169.919 186.631L169.291 186.881L168.653 187.126L168.006 187.365L167.35 187.6L166.683 187.829L166.006 188.053L165.319 188.272L164.622 188.486L163.913 188.695L163.193 188.899L162.462 189.097L161.719 189.291L160.964 189.48L160.196 189.663L159.415 189.842L158.621 190.015L157.813 190.184L156.991 190.348L156.154 190.506L155.301 190.66L154.432 190.809L153.546 190.953L152.642 191.091L151.72 191.225L150.779 191.354L149.817 191.479L148.834 191.598L147.828 191.712L146.798 191.821L145.743 191.926L144.66 192.026L143.548 192.12L142.404 192.21L141.227 192.295L140.013 192.376L138.759 192.451L137.461 192.521L136.114 192.587L134.713 192.648L133.252 192.704L131.722 192.755L130.112 192.801L128.409 192.842L126.596 192.879L124.649 192.911L122.533 192.938L120.195 192.96L117.547 192.977L114.42 192.99L110.39 192.997L102.822 193L90.4064 192.998L86.1427 192.991L82.9121 192.979L80.2026 192.963L77.8225 192.942L75.6753 192.915L73.7039 192.884L71.8715 192.849L70.1528 192.808L68.5292 192.762L66.9868 192.712L65.5149 192.657L64.105 192.597L62.7502 192.532L61.4447 192.462L60.1839 192.388L58.9637 192.308L57.7808 192.224L56.6321 192.135L55.5153 192.041L54.4279 191.942L53.3682 191.838L52.3342 191.73L51.3246 191.616L50.3379 191.498L49.3728 191.374L48.4283 191.246L47.5033 191.113L46.5969 190.975L45.7082 190.832L44.8365 190.684L43.9812 190.531L43.1414 190.373L42.3167 190.21L41.5064 190.043L40.7101 189.87L39.9273 189.692L39.1575 189.509L38.4003 189.321L37.6554 189.128L36.9223 188.931L36.2008 188.728L35.4905 188.52L34.7911 188.306L34.1024 188.088L33.4241 187.865L32.7559 187.637L32.0976 187.403L31.449 187.164L30.8099 186.92L30.18 186.671L29.5593 186.417L28.9474 186.157L28.3443 185.892L27.7498 185.622L27.1637 185.347L26.586 185.066L26.0163 184.78L25.4547 184.489L24.901 184.192L24.3551 183.89L23.8168 183.582L23.2861 183.269L22.7629 182.951L22.247 182.627L21.7384 182.297L21.2369 181.962L20.7425 181.621L20.2552 181.275L19.7747 180.923L19.3011 180.565L18.8343 180.201L18.3742 179.832L17.9207 179.457L17.4738 179.076L17.0334 178.689L16.5995 178.296L16.172 177.897L15.7508 177.492L15.3358 177.081L14.9272 176.663L14.5247 176.24L14.1283 175.81L13.7381 175.374L13.3538 174.931L12.9756 174.483L12.6034 174.027L12.2371 173.565L11.8767 173.096L11.5222 172.621L11.1734 172.139L10.8305 171.649L10.4933 171.153L10.1619 170.65L9.83609 170.14L9.51599 169.622L9.20152 169.097L8.89266 168.564L8.58939 168.024L8.29168 167.477L7.9995 166.921L7.71283 166.357L7.43165 165.785L7.15594 165.205L6.88567 164.617L6.62082 164.02L6.36138 163.414L6.10733 162.8L5.85864 162.176L5.61531 161.543L5.3773 160.901L5.14462 160.248L4.91723 159.586L4.69513 158.914L4.4783 158.231L4.26672 157.537L4.06039 156.833L3.85929 156.116L3.66341 155.389L3.47273 154.649L3.28724 153.896L3.10693 153.131L2.9318 152.352L2.76182 151.56L2.597 150.753L2.43732 149.931L2.28276 149.094L2.13333 148.24L1.98902 147.37L1.8498 146.482L1.71569 145.575L1.58667 144.648L1.46273 143.701L1.34386 142.732L1.23007 141.74L1.12134 140.724L1.01767 139.681L0.919051 138.61L0.825479 137.509L0.736949 136.376L0.653458 135.207L0.574999 134L0.50157 132.751L0.433166 131.456L0.369785 130.108L0.311422 128.703L0.258075 127.232L0.209741 125.685L0.166417 124.049L0.128102 122.309L0.094793 120.442L0.066489 118.414L0.0431884 116.178L0.02489 113.651L0.0115929 110.68L0.00329635 106.89L0 100.351L0.00170368 87.6517L0.00840747 83.4078L0.0201117 80.2364L0.036817 77.5904L0.0585241 75.2725L0.0852342 73.1848L0.116949 71.2704L0.153669 69.4925L0.195397 67.8259L0.242135 66.2523L0.293885 64.7581L0.35065 63.3327L0.412433 61.9676L0.479236 60.6562L0.551064 59.3928L0.62792 58.1728L0.709808 56.9923L0.796732 55.848L0.888698 54.7371L0.985708 53.6569L1.08777 52.6054L1.19489 51.5807L1.30707 50.5811L1.42432 49.6049L1.54664 48.651L1.67404 47.7181L1.80653 46.8051L1.94412 45.911L2.08681 45.0349L2.23461 44.176L2.38753 43.3336L2.54558 42.5069L2.70876 41.6954L2.8771 40.8984L3.05059 40.1154L3.22925 39.3459L3.41308 38.5894L3.60211 37.8456L3.79633 37.114L3.99577 36.3942L4.20043 35.6859L4.41034 34.9887L4.62549 34.3025L4.84591 33.6268L5.07161 32.9613L5.30261 32.306L5.53892 31.6604L5.78055 31.0244L6.02753 30.3977L6.27988 29.7803L6.5376 29.1717L6.80072 28.572L7.06926 27.9809L7.34324 27.3982L7.62267 26.8239L7.90759 26.2577L8.19801 25.6995L8.49396 25.1492L8.79546 24.6066L9.10253 24.0717L9.41521 23.5443L9.73351 23.0243L10.0575 22.5116L10.3871 22.0061L10.7225 21.5077L11.0636 21.0163L11.4105 20.5318L11.7631 20.0542L12.1217 19.5834L12.4861 19.1192L12.8564 18.6617L13.2327 18.2107L13.615 17.7662L14.0033 17.3281L14.3977 16.8963L14.7983 16.4708L15.205 16.0516L15.6179 15.6385L16.0371 15.2316L16.4626 14.8307L16.8945 14.4358L17.3328 14.0469L17.7777 13.664L18.229 13.2869L18.687 12.9157L19.1517 12.5503L19.6231 12.1906L20.1014 11.8367L20.5865 11.4884L21.0787 11.1459L21.5779 10.8089L22.0842 10.4775L22.5978 10.1517L23.1186 9.83138L23.647 9.51658L24.1828 9.20725L24.7263 8.90336L25.2775 8.60489L25.8366 8.3118L26.4036 8.02408L26.9788 7.7417L27.5622 7.46465L28.154 7.19289L28.7544 6.9264L29.3634 6.66517L29.9813 6.40918L30.6083 6.15841L31.2444 5.91283L31.89 5.67244L32.5452 5.43721L33.2102 5.20712L33.8852 4.98217L34.5706 4.76234L35.2666 4.54761L35.9733 4.33796L36.6912 4.13339L37.4206 3.93388L38.1617 3.73941L38.9149 3.54998L39.6807 3.36558L40.4593 3.18618L41.2512 3.01179L42.057 2.84239L42.8771 2.67797L43.712 2.51851L44.5623 2.36402L45.4287 2.21449L46.3119 2.06989L47.2126 1.93023L48.1315 1.7955L49.0698 1.66569L50.0282 1.54079L51.0079 1.4208L52.0101 1.30571L53.0361 1.19551L54.0874 1.09019L55.1658 0.989763L56.273 0.894208L57.4113 0.803523L58.583 0.717705L59.791 0.636748L61.0385 0.560649L62.3292 0.489404L63.6678 0.423008L65.0595 0.361459L66.5108 0.304753L68.0296 0.252888L69.626 0.20586L71.3127 0.163668L73.1065 0.126309L75.0303 0.0937814L77.1166 0.0660835L79.4145 0.043214L82.0046 0.0251717L85.0376 0.0119556L88.8695 0.00356521L95.1122 0L108.724 0.00125982L113.27 0.00734474L116.615 0.018255L119.391 0.0339913L121.816 0.0545543L123.996 0.079945L125.992 0.110165L127.845 0.145215L129.58 0.185098L131.218 0.229815L132.772 0.279368L134.255 0.333761L135.674 0.392996L137.037 0.457075L138.35 0.526003L139.618 0.599783L140.844 0.678418L142.033 0.761913L143.187 0.850272L144.309 0.943499L145.401 1.0416L146.465 1.14458L147.503 1.25244L148.516 1.3652L149.506 1.48285L150.475 1.6054L151.423 1.73287L152.351 1.86525L153.26 2.00255L154.151 2.14478L155.026 2.29196L155.884 2.44408L156.726 2.60116L157.553 2.76321L158.365 2.93023L159.164 3.10223L159.949 3.27924L160.721 3.46125L161.48 3.64827L162.227 3.84033L162.962 4.03743L163.685 4.23958L164.397 4.4468L165.098 4.6591L165.789 4.8765L166.468 5.099L167.138 5.32663L167.798 5.5594L168.448 5.79733L169.089 6.04043L169.72 6.28871L170.342 6.54221L170.956 6.80093L171.56 7.0649L172.156 7.33414L172.743 7.60866L173.323 7.8885L173.893 8.17366L174.456 8.46418L175.011 8.76008L175.558 9.06138L176.098 9.36811L176.63 9.68029L177.154 9.99796L177.671 10.3211L178.181 10.6499L178.684 10.9842L179.179 11.3241L179.668 11.6696L180.149 12.0208L180.624 12.3777L181.092 12.7404L181.553 13.1088L182.007 13.4831L182.455 13.8632L182.897 14.2493L183.332 14.6413L183.76 15.0393L184.183 15.4433L184.598 15.8534L185.008 16.2697L185.412 16.6922L185.809 17.121L186.2 17.556L186.585 17.9975L186.964 18.4454L187.338 18.8998L187.705 19.3608L188.066 19.8284L188.422 20.3028L188.771 20.784L189.115 21.272L189.453 21.767L189.786 22.2691L190.112 22.7784L190.433 23.2949L190.749 23.8188L191.058 24.3501L191.363 24.889L191.661 25.4356L191.954 25.99L192.242 26.5523L192.524 27.1228L192.8 27.7015L193.072 28.2885L193.337 28.8841L193.598 29.4884L193.853 30.1016L194.102 30.7238L194.346 31.3553L194.585 31.9963L194.819 32.647L195.047 33.3075L195.27 33.9783L195.487 34.6595L195.7 35.3514L195.907 36.0543L196.109 36.7686L196.306 37.4945L196.497 38.2325L196.684 38.9828L196.865 39.7461L197.041 40.5225L197.211 41.3128L197.377 42.1173L197.538 42.9367L197.693 43.7715L197.843 44.6225L197.988 45.4902L198.128 46.3756L198.263 47.2795L198.393 48.2027L198.518 49.1465L198.637 50.1118L198.752 51.1001L198.862 52.1126L198.966 53.1511L199.066 54.2173L199.16 55.3132L199.249 56.4413L199.334 57.6041L199.413 58.8047L199.487 60.0468L199.556 61.3347L199.62 62.6734L199.68 64.069L199.734 65.5292L199.783 67.0634L199.827 68.6836L199.866 70.4056L199.9 72.2511L199.929 74.2504L199.953 76.4493L199.972 78.9223L199.987 81.8068L199.996 85.4193L200 91.0536L200 96.4999Z" fill="white"/>
</g>
<defs>
<filter id="filter0_d" x="0" y="0" width="212" height="207" filterUnits="userSpaceOnUse" color-interpolation-filters="sRGB">
<feFlood flood-opacity="0" result="BackgroundImageFix"/>
<feColorMatrix in="SourceAlpha" type="matrix" values="0 0 0 0 0 0 0 0 0 0 0 0 0 0 0 0 0 0 127 0"/>
<feOffset dx="8" dy="10"/>
<feGaussianBlur stdDeviation="2"/>
<feColorMatrix type="matrix" values="0 0 0 0 0 0 0 0 0 0 0 0 0 0 0 0 0 0 0.41 0"/>
<feBlend mode="normal" in2="BackgroundImageFix" result="effect1_dropShadow"/>
<feBlend mode="normal" in="SourceGraphic" in2="effect1_dropShadow" result="shape"/>
</filter>
</defs>
</svg>
