<svg width="234" height="231" viewBox="0 0 234 231" fill="none" xmlns="http://www.w3.org/2000/svg">
<g filter="url(#filter0_d)">
<path d="M221.999 172L222 167L222 47.178L221.998 44.2586L221.993 42.3869L221.986 40.8923L221.977 39.611L221.965 38.4717L221.95 37.4358L221.933 36.4796L221.913 35.5873L221.891 34.7478L221.867 33.9529L221.84 33.1964L221.81 32.4732L221.778 31.7796L221.743 31.1123L221.706 30.4687L221.667 29.8466L221.625 29.2442L221.58 28.6597L221.533 28.0918L221.483 27.5394L221.431 27.0013L221.376 26.4767L221.319 25.9647L221.259 25.4645L221.197 24.9755L221.132 24.4971L221.064 24.0288L220.994 23.57L220.922 23.1204L220.846 22.6795L220.788 22.353L220.342 20.1984L220.249 19.8096L220.153 19.4272L220.054 19.0511L219.953 18.681L219.85 18.3168L219.744 17.9583L219.635 17.6053L219.523 17.2578L219.409 16.9155L219.293 16.5784L219.173 16.2463L219.051 15.9191L218.926 15.5967L218.799 15.279L218.669 14.9658L218.536 14.6573L218.4 14.3531L218.262 14.0533L218.121 13.7577L217.977 13.4663L217.831 13.179L217.681 12.8958L217.529 12.6166L217.374 12.3413L217.217 12.0699L217.056 11.8023L216.893 11.5384L216.727 11.2783L216.558 11.0218L216.386 10.7689L216.211 10.5196L216.033 10.2738L215.852 10.0315L215.669 9.79263L215.482 9.55719L215.293 9.32512L215.1 9.09639L214.904 8.87096L214.706 8.64881L214.504 8.4299L214.299 8.21421L214.091 8.00171L213.88 7.79236L213.666 7.58614L213.448 7.38304L213.228 7.18302L213.004 6.98606L212.776 6.79213L212.546 6.60123L212.312 6.41332L212.075 6.22839L211.834 6.04642L211.59 5.86738L211.342 5.69127L211.09 5.51806L210.836 5.34774L210.577 5.18029L210.315 5.01569L210.049 4.85394L209.779 4.69501L209.506 4.5389L209.228 4.38558L208.947 4.23505L208.661 4.0873L208.372 3.94231L208.078 3.80007L207.78 3.66057L207.478 3.5238L207.171 3.38974L206.86 3.2584L206.544 3.12975L206.224 3.00379L205.899 2.88052L205.569 2.75991L205.234 2.64197L204.894 2.52668L204.549 2.41404L204.198 2.30404L203.842 2.19667L203.481 2.09193L203.113 1.98981L202.74 1.8903L202.36 1.79339L201.974 1.69909L201.582 1.60737L201.183 1.51825L200.776 1.43171L200.363 1.34775L199.942 1.26636L199.513 1.18754L199.076 1.11129L198.63 1.03759L198.175 0.966448L197.711 0.897857L197.237 0.831814L196.753 0.768315L196.258 0.707356L195.751 0.648934L195.232 0.593046L194.7 0.539689L194.154 0.488859L193.594 0.440555L193.017 0.394773L192.422 0.351512L191.809 0.310768L191.175 0.27254L190.519 0.236826L189.837 0.203625L189.127 0.172933L188.386 0.14475L187.609 0.119075L186.79 0.0959056L185.922 0.075241L184.996 0.0570802L183.998 0.0414223L182.908 0.0282665L181.696 0.0176121L180.308 0.00945857L178.635 0.00380556L176.362 0.000652757L47.5561 0L44.4347 0.00184726L42.5188 0.00619462L41.0023 0.0130423L39.7072 0.0223907L38.5583 0.0342402L37.5151 0.0485914L36.5532 0.065445L35.6563 0.084802L34.813 0.106663L34.0148 0.13103L33.2554 0.157903L32.5297 0.187284L31.8339 0.219175L31.1646 0.253577L30.5192 0.290492L29.8955 0.329921L29.2915 0.371868L28.7056 0.416333L28.1365 0.46332L27.5829 0.51283L27.0437 0.564867L26.518 0.619434L26.005 0.676532L25.5039 0.736166L25.0141 0.798338L24.5349 0.863052L24.0658 0.930312L23.6063 1.00012L23.1559 1.07248L22.7144 1.1474L22.2812 1.22488L21.856 1.30493L21.4385 1.38755L21.0285 1.47274L20.6256 1.56051L20.2296 1.65087L19.8403 1.74382L19.4575 1.83937L19.0808 1.93752L18.7103 2.03828L18.3456 2.14165L17.9867 2.24765L17.6333 2.35627L17.2853 2.46753L16.9426 2.58144L16.6051 2.69799L16.2726 2.8172L15.945 2.93908L15.6222 3.06364L15.3041 3.19088L14.9907 3.32082L14.6817 3.45346L14.3772 3.58881L14.077 3.72688L13.7811 3.86769L13.4894 4.01124L13.2018 4.15755L12.9183 4.30663L12.6387 4.45849L12.3631 4.61314L12.0914 4.77059L11.8235 4.93087L11.5593 5.09398L11.2989 5.25994L11.0421 5.42876L10.7889 5.60046L10.5393 5.77505L10.2933 5.95256L10.0507 6.133L9.81157 6.31638L9.57585 6.50273L9.34352 6.69207L9.11452 6.88441L8.88883 7.07978L8.66642 7.2782L8.44726 7.47969L8.23131 7.68428L8.01855 7.89199L7.80895 8.10284L7.60249 8.31687L7.39914 8.53409L7.19887 8.75455L7.00167 8.97826L6.80751 9.20526L6.61636 9.43558L6.42822 9.66926L6.24305 9.90633L6.06084 10.1468L5.88157 10.3908L5.70523 10.6382L5.53179 10.8893L5.36123 11.1439L5.19355 11.4021L5.02873 11.664L4.86675 11.9297L4.7076 12.1991L4.55127 12.4724L4.39773 12.7495L4.24698 13.0306L4.09901 13.3158L3.95379 13.605L3.81134 13.8984L3.67162 14.196L3.53463 14.4979L3.40036 14.8041L3.2688 15.1149L3.13994 15.4302L3.01377 15.7501L2.89028 16.0748L2.76946 16.4043L2.6513 16.7388L2.53581 17.0784L2.42295 17.4232L2.31274 17.7733L2.20517 18.1289L2.10022 18.4901L1.99788 18.8571L1.89816 19.23L1.80105 19.6091L1.70654 19.9945L1.61462 20.3865L1.52529 20.7852L1.43855 21.1909L1.35438 21.6038L1.27279 22.0243L1.19376 22.4526L1.1173 22.8891L1.0434 23.3341L0.972059 23.7881L0.903266 24.2513L0.83702 24.7244L0.773318 25.2078L0.712157 25.702L0.653534 26.2078L0.597444 26.7257L0.543885 27.2567L0.492854 27.8015L0.444349 28.3612L0.398366 28.9368L0.354904 29.5297L0.31396 30.1413L0.275532 30.7734L0.239618 31.4281L0.206216 32.1076L0.175325 32.8148L0.146942 33.5534L0.121067 34.3276L0.0976984 35.1429L0.0768344 36.0064L0.0584743 36.9276L0.0426171 37.9196L0.029262 39.0012L0.0184085 40.2022L0.0100558 41.5733L0.00420373 43.2164L0.000851839 45.4154L0 168.995L0.00164817 172.383L0.00579644 174.347L0.012445 175.886L0.0215942 177.196L0.0332445 178.354L0.0473965 179.405L0.0640508 180.373L0.0832084 181.274L0.10487 182.121L0.129037 182.923L0.155711 183.685L0.184892 184.414L0.216583 185.112L0.250785 185.783L0.2875 186.43L0.326729 187.055L0.368475 187.661L0.412739 188.248L0.459525 188.819L0.508835 189.373L0.56067 189.914L0.615035 190.44L0.671932 190.954L0.731364 191.456L0.793333 191.947L0.857845 192.427L0.924902 192.897L0.994507 193.357L1.06667 193.808L1.14138 194.251L1.21866 194.685L1.2985 195.11L1.38091 195.528L1.4659 195.939L1.55347 196.342L1.64362 196.739L1.73636 197.129L1.8317 197.512L1.92965 197.889L2.0302 198.26L2.13336 198.625L2.23915 198.985L2.34756 199.339L2.45861 199.687L2.57231 200.03L2.68865 200.368L2.80765 200.701L2.92932 201.029L3.05366 201.352L3.18069 201.671L3.31041 201.984L3.44283 202.294L3.57797 202.599L3.71583 202.899L3.85642 203.195L3.99975 203.487L4.14584 203.775L4.2947 204.059L4.44633 204.339L4.60076 204.615L4.75799 204.887L4.91804 205.155L5.08092 205.42L5.24665 205.68L5.41525 205.938L5.58672 206.191L5.76108 206.441L5.93836 206.687L6.11856 206.93L6.30171 207.169L6.48782 207.405L6.67692 207.638L6.86902 207.867L7.06415 208.093L7.26233 208.316L7.46358 208.535L7.66792 208.752L7.87537 208.965L8.08598 209.174L8.29975 209.381L8.51672 209.585L8.73691 209.785L8.96036 209.983L9.1871 210.177L9.41716 210.368L9.65057 210.557L9.88736 210.742L10.1276 210.925L10.3713 211.104L10.6184 211.281L10.8692 211.454L11.1235 211.625L11.3814 211.793L11.6431 211.958L11.9084 212.12L12.1775 212.28L12.4505 212.436L12.7274 212.59L13.0082 212.741L13.293 212.889L13.5819 213.035L13.8749 213.177L14.1722 213.317L14.4737 213.454L14.7796 213.589L15.09 213.721L15.4049 213.85L15.7245 213.976L16.0488 214.1L16.3779 214.221L16.712 214.339L17.0512 214.455L17.3956 214.568L17.7452 214.678L18.1004 214.786L18.4611 214.891L18.8277 214.994L19.2001 215.094L19.5787 215.191L19.9636 215.286L20.355 215.378L20.7532 215.468L21.1583 215.555L21.5707 215.639L21.9906 215.721L22.4183 215.8L22.8541 215.877L23.2984 215.951L23.7516 216.022L24.2141 216.091L24.6864 216.158L25.1689 216.222L25.6623 216.283L26.1671 216.342L26.6841 216.398L27.214 216.452L27.7576 216.503L28.3161 216.552L28.8904 216.598L29.4818 216.642L30.0919 216.683L30.7223 216.721L31.3751 216.758L32.0525 216.791L32.7575 216.822L33.4934 216.851L34.2646 216.877L35.0764 216.9L35.9357 216.921L36.8519 216.94L37.8376 216.956L38.9113 216.97L40.1013 216.981L41.456 216.989L43.0713 216.995L45.2032 216.999L173.411 217L177.195 216.998L179.21 216.995L180.774 216.988L182.098 216.979L183.267 216.968L184.325 216.954L185.298 216.937L186.205 216.918L187.056 216.897L187.861 216.873L188.626 216.846L189.357 216.817L190.057 216.786L190.73 216.752L191.379 216.715L192.006 216.676L192.613 216.635L193.202 216.591L193.774 216.544L194.33 216.495L194.871 216.443L195.399 216.389L195.914 216.333L196.417 216.273L196.909 216.212L197.389 216.147L197.86 216.08L198.321 216.011L198.773 215.939L199.216 215.865L199.65 215.787L200.077 215.708L200.495 215.626L200.907 215.541L201.311 215.453L201.708 215.364L202.098 215.271L202.482 215.176L202.86 215.078L203.231 214.978L203.597 214.875L203.956 214.769L204.311 214.661L204.66 214.55L205.003 214.437L205.341 214.321L205.675 214.202L206.003 214.08L206.327 213.956L206.645 213.829L206.96 213.7L207.269 213.568L207.575 213.433L207.875 213.295L208.172 213.155L208.464 213.012L208.753 212.866L209.037 212.717L209.317 212.566L209.593 212.412L209.866 212.255L210.134 212.095L210.399 211.932L210.66 211.767L210.917 211.598L211.171 211.427L211.421 211.253L211.668 211.076L211.911 210.896L212.151 210.713L212.387 210.527L212.62 210.338L212.849 210.146L213.075 209.951L213.298 209.753L213.518 209.552L213.734 209.348L213.948 209.141L214.158 208.931L214.365 208.717L214.569 208.501L214.769 208.281L214.967 208.057L215.162 207.831L215.353 207.601L215.542 207.368L215.728 207.132L215.91 206.892L216.09 206.648L216.267 206.401L216.441 206.151L216.612 205.897L216.78 205.639L216.945 205.378L217.108 205.113L217.267 204.844L217.424 204.571L217.578 204.295L217.729 204.014L217.878 203.73L218.023 203.441L218.166 203.148L218.306 202.852L218.444 202.55L218.578 202.245L218.71 201.935L218.84 201.62L218.966 201.301L219.09 200.977L219.211 200.648L219.33 200.315L219.446 199.976L219.559 199.632L219.67 199.283L219.778 198.928L219.883 198.568L219.986 198.202L220.086 197.83L220.184 197.452L220.279 197.067L220.371 196.676L220.461 196.279L220.548 195.874L220.632 195.462L220.794 194.616L220.871 194.181L220.945 193.737L221.017 193.285L221.086 192.823L221.153 192.351L221.217 191.87L221.278 191.377L221.337 190.873L221.394 190.357L221.448 189.829L221.499 189.286L221.548 188.729L221.594 188.156L221.638 187.566L221.68 186.957L221.718 186.329L221.755 185.678L221.789 185.002L221.82 184.3L221.849 183.566L221.875 182.798L221.899 181.99L221.92 181.135L221.939 180.223L221.955 179.244L221.969 178.178L221.98 176.999L221.989 175.66L221.995 174.071L221.999 172Z" fill="white"/>
</g>
<defs>
<filter id="filter0_d" x="0" y="0" width="234" height="231" filterUnits="userSpaceOnUse" color-interpolation-filters="sRGB">
<feFlood flood-opacity="0" result="BackgroundImageFix"/>
<feColorMatrix in="SourceAlpha" type="matrix" values="0 0 0 0 0 0 0 0 0 0 0 0 0 0 0 0 0 0 127 0"/>
<feOffset dx="8" dy="10"/>
<feGaussianBlur stdDeviation="2"/>
<feColorMatrix type="matrix" values="0 0 0 0 0 0 0 0 0 0 0 0 0 0 0 0 0 0 0.41 0"/>
<feBlend mode="normal" in2="BackgroundImageFix" result="effect1_dropShadow"/>
<feBlend mode="normal" in="SourceGraphic" in2="effect1_dropShadow" result="shape"/>
</filter>
</defs>
</svg>
