<svg width="234" height="114" viewBox="0 0 234 114" fill="none" xmlns="http://www.w3.org/2000/svg">
<g filter="url(#filter0_d)">
<path d="M221.999 54.9999L222 49.9999L222 47.178L221.998 44.2586L221.993 42.3869L221.986 40.8923L221.977 39.611L221.965 38.4717L221.95 37.4358L221.933 36.4796L221.913 35.5873L221.891 34.7478L221.867 33.9529L221.84 33.1964L221.81 32.4732L221.778 31.7796L221.743 31.1123L221.706 30.4687L221.667 29.8466L221.625 29.2442L221.58 28.6597L221.533 28.0918L221.483 27.5394L221.431 27.0013L221.376 26.4767L221.319 25.9647L221.259 25.4645L221.197 24.9755L221.132 24.4971L221.064 24.0288L220.994 23.57L220.922 23.1204L220.846 22.6795L220.788 22.353L220.342 20.1984L220.249 19.8096L220.153 19.4272L220.054 19.0511L219.953 18.681L219.85 18.3168L219.744 17.9583L219.635 17.6053L219.523 17.2578L219.409 16.9155L219.293 16.5784L219.173 16.2463L219.051 15.9191L218.926 15.5967L218.799 15.279L218.669 14.9658L218.536 14.6573L218.4 14.3531L218.262 14.0533L218.121 13.7577L217.977 13.4663L217.831 13.179L217.681 12.8958L217.529 12.6166L217.374 12.3413L217.217 12.0699L217.056 11.8023L216.893 11.5384L216.727 11.2783L216.558 11.0218L216.386 10.7689L216.211 10.5196L216.033 10.2738L215.852 10.0315L215.669 9.79263L215.482 9.55719L215.293 9.32512L215.1 9.09639L214.904 8.87096L214.706 8.64881L214.504 8.4299L214.299 8.21421L214.091 8.00171L213.88 7.79236L213.666 7.58614L213.448 7.38304L213.228 7.18302L213.004 6.98606L212.776 6.79213L212.546 6.60123L212.312 6.41332L212.075 6.22839L211.834 6.04642L211.59 5.86738L211.342 5.69127L211.09 5.51806L210.836 5.34774L210.577 5.18029L210.315 5.01569L210.049 4.85394L209.779 4.69501L209.506 4.5389L209.228 4.38558L208.947 4.23505L208.661 4.0873L208.372 3.94231L208.078 3.80007L207.78 3.66057L207.478 3.5238L207.171 3.38974L206.86 3.2584L206.544 3.12975L206.224 3.00379L205.899 2.88052L205.569 2.75991L205.234 2.64197L204.894 2.52668L204.549 2.41404L204.198 2.30404L203.842 2.19667L203.481 2.09193L203.113 1.98981L202.74 1.8903L202.36 1.79339L201.974 1.69909L201.582 1.60737L201.183 1.51825L200.776 1.43171L200.363 1.34775L199.942 1.26636L199.513 1.18754L199.076 1.11129L198.63 1.03759L198.175 0.966448L197.711 0.897857L197.237 0.831814L196.753 0.768315L196.258 0.707356L195.751 0.648934L195.232 0.593046L194.7 0.539689L194.154 0.488859L193.594 0.440555L193.017 0.394773L192.422 0.351512L191.809 0.310768L191.175 0.27254L190.519 0.236826L189.837 0.203625L189.127 0.172933L188.386 0.14475L187.609 0.119075L186.79 0.0959056L185.922 0.075241L184.996 0.0570802L183.998 0.0414223L182.908 0.0282665L181.696 0.0176121L180.308 0.00945857L178.635 0.00380556L176.362 0.000652757L47.5561 0L44.4347 0.00184726L42.5188 0.00619462L41.0023 0.0130423L39.7072 0.0223907L38.5583 0.0342402L37.5151 0.0485914L36.5532 0.065445L35.6563 0.084802L34.813 0.106663L34.0148 0.13103L33.2554 0.157903L32.5297 0.187284L31.8339 0.219175L31.1646 0.253577L30.5192 0.290492L29.8955 0.329921L29.2915 0.371868L28.7056 0.416333L28.1365 0.46332L27.5829 0.51283L27.0437 0.564867L26.518 0.619434L26.005 0.676532L25.5039 0.736166L25.0141 0.798338L24.5349 0.863052L24.0658 0.930312L23.6063 1.00012L23.1559 1.07248L22.7144 1.1474L22.2812 1.22488L21.856 1.30493L21.4385 1.38755L21.0285 1.47274L20.6256 1.56051L20.2296 1.65087L19.8403 1.74382L19.4575 1.83937L19.0808 1.93752L18.7103 2.03828L18.3456 2.14165L17.9867 2.24765L17.6333 2.35627L17.2853 2.46753L16.9426 2.58144L16.6051 2.69799L16.2726 2.8172L15.945 2.93908L15.6222 3.06364L15.3041 3.19088L14.9907 3.32082L14.6817 3.45346L14.3772 3.58881L14.077 3.72688L13.7811 3.86769L13.4894 4.01124L13.2018 4.15755L12.9183 4.30663L12.6387 4.45849L12.3631 4.61314L12.0914 4.77059L11.8235 4.93087L11.5593 5.09398L11.2989 5.25994L11.0421 5.42876L10.7889 5.60046L10.5393 5.77505L10.2933 5.95256L10.0507 6.133L9.81157 6.31638L9.57585 6.50273L9.34352 6.69207L9.11452 6.88441L8.88883 7.07978L8.66642 7.2782L8.44726 7.47969L8.23131 7.68428L8.01855 7.89199L7.80895 8.10284L7.60249 8.31687L7.39914 8.53409L7.19887 8.75455L7.00167 8.97826L6.80751 9.20526L6.61636 9.43558L6.42822 9.66926L6.24305 9.90633L6.06084 10.1468L5.88157 10.3908L5.70523 10.6382L5.53179 10.8893L5.36123 11.1439L5.19355 11.4021L5.02873 11.664L4.86675 11.9297L4.7076 12.1991L4.55127 12.4724L4.39773 12.7495L4.24698 13.0306L4.09901 13.3158L3.95379 13.605L3.81134 13.8984L3.67162 14.196L3.53463 14.4979L3.40036 14.8041L3.2688 15.1149L3.13994 15.4302L3.01377 15.7501L2.89028 16.0748L2.76946 16.4043L2.6513 16.7388L2.53581 17.0784L2.42295 17.4232L2.31274 17.7733L2.20517 18.1289L2.10022 18.4901L1.99788 18.8571L1.89816 19.23L1.80105 19.6091L1.70654 19.9945L1.61462 20.3865L1.52529 20.7852L1.43855 21.1909L1.35438 21.6038L1.27279 22.0243L1.19376 22.4526L1.1173 22.8891L1.0434 23.3341L0.972059 23.7881L0.903266 24.2513L0.83702 24.7244L0.773318 25.2078L0.712157 25.702L0.653534 26.2078L0.597444 26.7257L0.543885 27.2567L0.492854 27.8015L0.444349 28.3612L0.398366 28.9368L0.354904 29.5297L0.31396 30.1413L0.275532 30.7734L0.239618 31.4281L0.206216 32.1076L0.175325 32.8148L0.146942 33.5534L0.121067 34.3276L0.0976984 35.1429L0.0768344 36.0064L0.0584743 36.9276L0.0426171 37.9196L0.029262 39.0012L0.0184085 40.2022L0.0100558 41.5733L0.00420373 43.2164L0.000851839 45.4154L0 51.9953L0.00164817 55.3833L0.00579644 57.3469L0.012445 58.8864L0.0215942 60.1956L0.0332445 61.3544L0.0473965 62.4049L0.0640508 63.3726L0.0832084 64.2742L0.10487 65.1215L0.129037 65.923L0.155711 66.6853L0.184892 67.4135L0.216583 68.1116L0.250785 68.7829L0.2875 69.4301L0.326729 70.0555L0.368475 70.661L0.412739 71.2482L0.459525 71.8186L0.508835 72.3735L0.56067 72.9137L0.615035 73.4405L0.671932 73.9545L0.731364 74.4565L0.793333 74.9472L0.857845 75.4272L0.924902 75.8971L0.994507 76.3574L1.06667 76.8084L1.14138 77.2507L1.21866 77.6845L1.2985 78.1103L1.38091 78.5284L1.4659 78.939L1.55347 79.3425L1.64362 79.739L1.73636 80.1288L1.8317 80.5122L1.92965 80.8893L2.0302 81.2603L2.13336 81.6255L2.23915 81.9849L2.34756 82.3387L2.45861 82.6871L2.57231 83.0302L2.68865 83.3681L2.80765 83.701L2.92932 84.029L3.05366 84.3522L3.18069 84.6706L3.31041 84.9844L3.44283 85.2938L3.57797 85.5986L3.71583 85.8991L3.85642 86.1954L3.99975 86.4874L4.14584 86.7753L4.2947 87.0592L4.44633 87.339L4.60076 87.615L4.75799 87.887L4.91804 88.1552L5.08092 88.4197L5.24665 88.6804L5.41525 88.9375L5.58672 89.1909L5.76108 89.4408L5.93836 89.6872L6.11856 89.93L6.30171 90.1694L6.48782 90.4054L6.67692 90.638L6.86902 90.8673L7.06415 91.0932L7.26233 91.3159L7.46358 91.5353L7.66792 91.7515L7.87537 91.9645L8.08598 92.1744L8.29975 92.3811L8.51672 92.5847L8.73691 92.7852L8.96036 92.9826L9.1871 93.177L9.41716 93.3684L9.65057 93.5568L9.88736 93.7422L10.1276 93.9247L10.3713 94.1042L10.6184 94.2807L10.8692 94.4544L11.1235 94.6252L11.3814 94.7931L11.6431 94.9581L11.9084 95.1203L12.1775 95.2797L12.4505 95.4363L12.7274 95.59L13.0082 95.741L13.293 95.8892L13.5819 96.0346L13.8749 96.1773L14.1722 96.3173L14.4737 96.4545L14.7796 96.5889L15.09 96.7207L15.4049 96.8498L15.7245 96.9762L16.0488 97.0999L16.3779 97.2209L16.712 97.3393L17.0512 97.455L17.3956 97.5681L17.7452 97.6785L18.1004 97.7863L18.4611 97.8914L18.8277 97.994L19.2001 98.0939L19.5787 98.1912L19.9636 98.2859L20.355 98.3781L20.7532 98.4676L21.1583 98.5545L21.5707 98.6389L21.9906 98.7207L22.4183 98.7999L22.8541 98.8766L23.2984 98.9507L23.7516 99.0222L24.2141 99.0912L24.6864 99.1577L25.1689 99.2216L25.6623 99.283L26.1671 99.3418L26.6841 99.3981L27.214 99.4518L27.7576 99.5031L28.3161 99.5518L28.8904 99.598L29.4818 99.6416L30.0919 99.6828L30.7223 99.7214L31.3751 99.7575L32.0525 99.7911L32.7575 99.8222L33.4934 99.8508L34.2646 99.8769L35.0764 99.9004L35.9357 99.9215L36.8519 99.9401L37.8376 99.9561L38.9113 99.9697L40.1013 99.9807L41.456 99.9893L43.0713 99.9953L45.2032 99.9989L173.411 99.9999L177.195 99.9985L179.21 99.9945L180.774 99.9881L182.098 99.9791L183.267 99.9677L184.325 99.9537L185.298 99.9373L186.205 99.9183L187.056 99.8968L187.861 99.8729L188.626 99.8464L189.357 99.8174L190.057 99.7859L190.73 99.7519L191.379 99.7154L192.006 99.6764L192.613 99.6348L193.202 99.5908L193.774 99.5442L194.33 99.4951L194.871 99.4434L195.399 99.3893L195.914 99.3326L196.417 99.2734L196.909 99.2116L197.389 99.1473L197.86 99.0804L198.321 99.011L198.773 98.9391L199.216 98.8646L199.65 98.7875L200.077 98.7078L200.495 98.6256L200.907 98.5409L201.311 98.4535L201.708 98.3635L202.098 98.271L202.482 98.1759L202.86 98.0781L203.231 97.9778L203.597 97.8748L203.956 97.7693L204.311 97.6611L204.66 97.5502L205.003 97.4367L205.341 97.3206L205.675 97.2018L206.003 97.0804L206.327 96.9562L206.645 96.8294L206.96 96.6999L207.269 96.5677L207.575 96.4328L207.875 96.2952L208.172 96.1548L208.464 96.0117L208.753 95.8658L209.037 95.7172L209.317 95.5657L209.593 95.4115L209.866 95.2545L210.134 95.0947L210.399 94.932L210.66 94.7665L210.917 94.5982L211.171 94.4269L211.421 94.2528L211.668 94.0758L211.911 93.8958L212.151 93.7129L212.387 93.527L212.62 93.3381L212.849 93.1463L213.075 92.9514L213.298 92.7535L213.518 92.5525L213.734 92.3484L213.948 92.1412L214.158 91.9308L214.365 91.7173L214.569 91.5006L214.769 91.2806L214.967 91.0574L215.162 90.831L215.353 90.6012L215.542 90.368L215.728 90.1315L215.91 89.8916L216.09 89.6482L216.267 89.4013L216.441 89.1508L216.612 88.8968L216.78 88.6391L216.945 88.3778L217.108 88.1128L217.267 87.8439L217.424 87.5713L217.578 87.2947L217.729 87.0143L217.878 86.7298L218.023 86.4412L218.166 86.1485L218.306 85.8516L218.444 85.5504L218.578 85.2448L218.71 84.9348L218.84 84.6202L218.966 84.301L219.09 83.9771L219.211 83.6483L219.33 83.3146L219.446 82.9759L219.559 82.632L219.67 82.2827L219.778 81.928L219.883 81.5677L219.986 81.2016L220.086 80.8296L220.184 80.4515L220.279 80.0672L220.371 79.6763L220.461 79.2787L220.548 78.8741L220.632 78.4623L220.794 77.616L220.871 77.1808L220.945 76.7372L221.017 76.2847L221.086 75.823L221.153 75.3515L221.217 74.8698L221.278 74.3773L221.337 73.8734L221.394 73.3575L221.448 72.8286L221.499 72.2861L221.548 71.7289L221.594 71.1559L221.638 70.5658L221.68 69.9573L221.718 69.3285L221.755 68.6777L221.789 68.0023L221.82 67.2997L221.849 66.5663L221.875 65.7981L221.899 64.9898L221.92 64.1345L221.939 63.2233L221.955 62.2437L221.969 61.1779L221.98 59.9986L221.989 58.6595L221.995 57.0708L221.999 54.9999Z" fill="white"/>
</g>
<defs>
<filter id="filter0_d" x="0" y="0" width="234" height="114" filterUnits="userSpaceOnUse" color-interpolation-filters="sRGB">
<feFlood flood-opacity="0" result="BackgroundImageFix"/>
<feColorMatrix in="SourceAlpha" type="matrix" values="0 0 0 0 0 0 0 0 0 0 0 0 0 0 0 0 0 0 127 0"/>
<feOffset dx="8" dy="10"/>
<feGaussianBlur stdDeviation="2"/>
<feColorMatrix type="matrix" values="0 0 0 0 0 0 0 0 0 0 0 0 0 0 0 0 0 0 0.41 0"/>
<feBlend mode="normal" in2="BackgroundImageFix" result="effect1_dropShadow"/>
<feBlend mode="normal" in="SourceGraphic" in2="effect1_dropShadow" result="shape"/>
</filter>
</defs>
</svg>
