<svg width="116" height="116" viewBox="0 0 116 116" fill="none" xmlns="http://www.w3.org/2000/svg">
<g filter="url(#filter0_d)">
<path fill-rule="evenodd" clip-rule="evenodd" d="M108 57.9999L107.999 62.9999L107.995 65.0708L107.989 66.6595L107.98 67.9986L107.969 69.1779L107.955 70.2437L107.939 71.2233L107.92 72.1345L107.899 72.9898L107.875 73.7981L107.849 74.5663L107.82 75.2997L107.789 76.0023L107.755 76.6777L107.718 77.3285L107.68 77.9573L107.638 78.5658L107.594 79.1559L107.548 79.7289L107.499 80.2861L107.448 80.8286L107.394 81.3575L107.337 81.8734L107.278 82.3773L107.217 82.8698L107.153 83.3515L107.086 83.823L107.017 84.2847L106.945 84.7372L106.871 85.1808L106.794 85.616L106.714 86.043L106.632 86.4623L106.548 86.8741L106.461 87.2787L106.371 87.6763L106.279 88.0672L106.184 88.4515L106.086 88.8296L105.986 89.2016L105.883 89.5677L105.778 89.928L105.67 90.2827L105.559 90.632L105.446 90.9759L105.33 91.3146L105.211 91.6483L105.09 91.9771L104.966 92.301L104.84 92.6202L104.71 92.9348L104.578 93.2448L104.444 93.5504L104.306 93.8516L104.166 94.1485L104.023 94.4412L103.878 94.7298L103.729 95.0143L103.578 95.2947L103.424 95.5713L103.267 95.8439L103.108 96.1128L102.945 96.3778L102.78 96.6391L102.612 96.8968L102.441 97.1508L102.267 97.4013L102.09 97.6482L101.91 97.8916L101.728 98.1315L101.542 98.368L101.353 98.6012L101.162 98.831L100.967 99.0574L100.769 99.2806L100.569 99.5006L100.365 99.7173L100.158 99.9308L99.9477 100.141L99.7345 100.348L99.518 100.552L99.2983 100.753L99.0754 100.951L98.8492 101.146L98.6196 101.338L98.3868 101.527L98.1505 101.713L97.9108 101.896L97.6677 102.076L97.4211 102.253L97.1709 102.427L96.9172 102.598L96.6598 102.767L96.3988 102.932L96.134 103.095L95.8655 103.255L95.5932 103.412L95.3169 103.566L95.0368 103.717L94.7526 103.866L94.4644 104.012L94.172 104.155L93.8754 104.295L93.5745 104.433L93.2693 104.568L92.9597 104.7L92.6455 104.829L92.3266 104.956L92.0031 105.08L91.6747 105.202L91.3414 105.321L91.0031 105.437L90.6596 105.55L90.3107 105.661L89.9565 105.769L89.5966 105.875L89.231 105.978L88.8595 106.078L88.4819 106.176L88.098 106.271L87.7077 106.364L87.3106 106.453L86.9066 106.541L86.4954 106.626L86.0768 106.708L85.6503 106.787L85.2158 106.865L84.7729 106.939L84.3211 107.011L83.8601 107.08L83.3894 107.147L82.9086 107.212L82.417 107.273L81.914 107.333L81.399 107.389L80.8713 107.443L80.3299 107.495L79.7739 107.544L79.2021 107.591L78.6135 107.635L78.0065 107.676L77.3794 107.715L76.7304 107.752L76.0571 107.786L75.3567 107.817L74.626 107.846L73.8607 107.873L73.0558 107.897L72.2046 107.918L71.2982 107.937L70.3246 107.954L69.2666 107.968L68.0976 107.979L66.7737 107.988L65.2102 107.995L63.1952 107.998L59.4109 108L53.2032 107.999L51.0713 107.995L49.456 107.989L48.1013 107.981L46.9113 107.97L45.8376 107.956L44.8519 107.94L43.9357 107.921L43.0764 107.9L42.2646 107.877L41.4934 107.851L40.7575 107.822L40.0525 107.791L39.3751 107.758L38.7223 107.721L38.0919 107.683L37.4818 107.642L36.8904 107.598L36.3161 107.552L35.7576 107.503L35.214 107.452L34.6841 107.398L34.1671 107.342L33.6623 107.283L33.1689 107.222L32.6864 107.158L32.2141 107.091L31.7516 107.022L31.2984 106.951L30.8541 106.877L30.4183 106.8L29.9906 106.721L29.5707 106.639L29.1583 106.555L28.7532 106.468L28.355 106.378L27.9636 106.286L27.5787 106.191L27.2001 106.094L26.8277 105.994L26.4611 105.891L26.1004 105.786L25.7452 105.678L25.3956 105.568L25.0512 105.455L24.712 105.339L24.3779 105.221L24.0488 105.1L23.7245 104.976L23.4049 104.85L23.09 104.721L22.7796 104.589L22.4737 104.454L22.1722 104.317L21.8749 104.177L21.5819 104.035L21.293 103.889L21.0082 103.741L20.7274 103.59L20.4505 103.436L20.1775 103.28L19.9084 103.12L19.6431 102.958L19.3814 102.793L19.1235 102.625L18.8692 102.454L18.6184 102.281L18.3713 102.104L18.1276 101.925L17.8874 101.742L17.6506 101.557L17.4172 101.368L17.1871 101.177L16.9604 100.983L16.7369 100.785L16.5167 100.585L16.2997 100.381L16.086 100.174L15.8754 99.9645L15.6679 99.7515L15.4636 99.5353L15.2623 99.3159L15.0642 99.0932L14.869 98.8673L14.6769 98.638L14.4878 98.4054L14.3017 98.1694L14.1186 97.93L13.9384 97.6872L13.7611 97.4408L13.5867 97.1909L13.4152 96.9375L13.2467 96.6804L13.0809 96.4197L12.918 96.1552L12.758 95.887L12.6008 95.615L12.4463 95.339L12.2947 95.0592L12.1458 94.7753L11.9997 94.4874L11.8564 94.1954L11.7158 93.8991L11.578 93.5986L11.4428 93.2938L11.3104 92.9844L11.1807 92.6706L11.0537 92.3522L10.9293 92.029L10.8077 91.701L10.6887 91.3681L10.5723 91.0302L10.4586 90.6871L10.3476 90.3387L10.2391 89.9849L10.1334 89.6255L10.0302 89.2603L9.92965 88.8893L9.8317 88.5122L9.73636 88.1288L9.64362 87.739L9.55347 87.3425L9.4659 86.939L9.38091 86.5284L9.2985 86.1103L9.21866 85.6845L9.14138 85.2507L9.06667 84.8084L8.99451 84.3574L8.9249 83.8971L8.85785 83.4272L8.79333 82.9472L8.73136 82.4565L8.67193 81.9545L8.61504 81.4405L8.56067 80.9137L8.50883 80.3735L8.45953 79.8186L8.41274 79.2482L8.36847 78.661L8.32673 78.0555L8.2875 77.4301L8.25078 76.7829L8.21658 76.1116L8.18489 75.4135L8.15571 74.6853L8.12904 73.923L8.10487 73.1215L8.08321 72.2742L8.06405 71.3726L8.0474 70.4049L8.03324 69.3544L8.02159 68.1956L8.01245 66.8864L8.0058 65.3469L8.00165 63.3833L8 59.9953L8.00085 53.4154L8.0042 51.2164L8.01006 49.5733L8.01841 48.2022L8.02926 47.0012L8.04262 45.9196L8.05847 44.9276L8.07683 44.0064L8.0977 43.1429L8.12107 42.3276L8.14694 41.5534L8.17532 40.8148L8.20622 40.1076L8.23962 39.4281L8.27553 38.7734L8.31396 38.1413L8.3549 37.5297L8.39837 36.9368L8.44435 36.3612L8.49285 35.8015L8.54388 35.2567L8.59744 34.7257L8.65353 34.2078L8.71216 33.702L8.77332 33.2078L8.83702 32.7244L8.90327 32.2513L8.97206 31.7881L9.0434 31.3341L9.1173 30.8891L9.19376 30.4526L9.27279 30.0243L9.35438 29.6038L9.43855 29.1909L9.52529 28.7852L9.61462 28.3865L9.70654 27.9945L9.80105 27.6091L9.89816 27.23L9.99788 26.8571L10.1002 26.4901L10.2052 26.1289L10.3127 25.7733L10.423 25.4232L10.5358 25.0784L10.6513 24.7388L10.7695 24.4043L10.8903 24.0748L11.0138 23.7501L11.1399 23.4302L11.2688 23.1149L11.4004 22.8041L11.5346 22.4979L11.6716 22.196L11.8113 21.8984L11.9538 21.605L12.099 21.3158L12.247 21.0306L12.3977 20.7495L12.5513 20.4724L12.7076 20.1991L12.8668 19.9297L13.0287 19.664L13.1936 19.4021L13.3612 19.1439L13.5318 18.8893L13.7052 18.6382L13.8816 18.3908L14.0608 18.1468L14.243 17.9063L14.4282 17.6693L14.6164 17.4356L14.8075 17.2053L15.0017 16.9783L15.1989 16.7545L15.3991 16.5341L15.6025 16.3169L15.809 16.1028L16.0186 15.892L16.2313 15.6843L16.4473 15.4797L16.6664 15.2782L16.8888 15.0798L17.1145 14.8844L17.3435 14.6921L17.5759 14.5027L17.8116 14.3164L18.0507 14.133L18.2933 13.9526L18.5393 13.7751L18.7889 13.6005L19.0421 13.4288L19.2989 13.2599L19.5593 13.094L19.8235 12.9309L20.0914 12.7706L20.3631 12.6131L20.6387 12.4585L20.9183 12.3066L21.2018 12.1576L21.4894 12.0112L21.7811 11.8677L22.077 11.7269L22.3772 11.5888L22.6817 11.4535L22.9907 11.3208L23.3041 11.1909L23.6222 11.0636L23.945 10.9391L24.2726 10.8172L24.6051 10.698L24.9426 10.5814L25.2853 10.4675L25.6333 10.3563L25.9867 10.2476L26.3456 10.1416L26.7103 10.0383L27.0808 9.93752L27.4575 9.83937L27.8403 9.74382L28.2296 9.65087L28.6256 9.56051L29.0285 9.47274L29.4385 9.38755L29.856 9.30493L30.2812 9.22488L30.7144 9.1474L31.1559 9.07248L31.6063 9.00012L32.0658 8.93031L32.5349 8.86305L33.0141 8.79834L33.5039 8.73617L34.005 8.67653L34.518 8.61943L35.0437 8.56487L35.5829 8.51283L36.1365 8.46332L36.7056 8.41633L37.2915 8.37187L37.8955 8.32992L38.5192 8.29049L39.1646 8.25358L39.8339 8.21918L40.5297 8.18728L41.2554 8.1579L42.0148 8.13103L42.813 8.10666L43.6563 8.0848L44.5532 8.06545L45.5151 8.04859L46.5583 8.03424L47.7072 8.02239L49.0023 8.01304L50.5188 8.00619L52.4347 8.00185L55.5561 8L62.362 8.00065L64.6351 8.00381L66.3077 8.00946L67.6956 8.01761L68.9079 8.02827L69.9978 8.04142L70.9961 8.05708L71.9224 8.07524L72.7901 8.09591L73.6089 8.11907L74.3862 8.14475L75.1274 8.17293L75.8371 8.20362L76.5187 8.23683L77.1752 8.27254L77.809 8.31077L78.4222 8.35151L79.0165 8.39477L79.5935 8.44055L80.1544 8.48886L80.7003 8.53969L81.2324 8.59305L81.7513 8.64893L82.258 8.70736L82.7532 8.76832L83.2374 8.83181L83.7113 8.89786L84.1753 8.96645L84.6299 9.03759L85.0757 9.11129L85.5128 9.18754L85.9418 9.26636L86.3629 9.34775L86.7764 9.43171L87.1827 9.51825L87.5819 9.60737L87.9744 9.69909L88.3603 9.79339L88.7399 9.8903L89.1133 9.98981L89.4808 10.0919L89.8425 10.1967L90.1985 10.304L90.549 10.414L90.8942 10.5267L91.2342 10.642L91.5691 10.7599L91.899 10.8805L92.2241 11.0038L92.5444 11.1298L92.8601 11.2584L93.1712 11.3897L93.4778 11.5238L93.78 11.6606L94.078 11.8001L94.3717 11.9423L94.6612 12.0873L94.9467 12.2351L95.2281 12.3856L95.5056 12.5389L95.7792 12.695L96.0489 12.8539L96.3149 13.0157L96.5771 13.1803L96.8356 13.3477L97.0905 13.5181L97.3418 13.6913L97.5895 13.8674L97.8338 14.0464L98.0745 14.2284L98.3119 14.4133L98.5458 14.6012L98.7764 14.7921L99.0037 14.9861L99.2277 15.183L99.4484 15.383L99.6658 15.5861L99.8801 15.7924L100.091 16.0017L100.299 16.2142L100.504 16.4299L100.706 16.6488L100.904 16.871L101.1 17.0964L101.293 17.3251L101.482 17.5572L101.669 17.7926L101.852 18.0315L102.033 18.2738L102.211 18.5196L102.386 18.7689L102.558 19.0218L102.727 19.2783L102.893 19.5384L103.056 19.8023L103.217 20.0699L103.374 20.3413L103.529 20.6166L103.681 20.8958L103.831 21.179L103.977 21.4663L104.121 21.7577L104.262 22.0533L104.4 22.3531L104.536 22.6573L104.669 22.9658L104.799 23.279L104.926 23.5967L105.051 23.9191L105.173 24.2463L105.293 24.5784L105.409 24.9155L105.523 25.2578L105.635 25.6053L105.744 25.9583L105.85 26.3168L105.953 26.681L106.054 27.0511L106.153 27.4272L106.249 27.8096L106.342 28.1984L106.432 28.5938L106.52 28.9961L106.606 29.4056L106.688 29.8224L106.769 30.247L106.846 30.6795L106.922 31.1204L106.994 31.57L107.064 32.0288L107.132 32.4971L107.197 32.9755L107.259 33.4645L107.319 33.9647L107.376 34.4767L107.431 35.0013L107.483 35.5394L107.533 36.0918L107.58 36.6597L107.625 37.2442L107.667 37.8466L107.706 38.4687L107.743 39.1123L107.778 39.7796L107.81 40.4732L107.84 41.1964L107.867 41.9529L107.891 42.7478L107.913 43.5873L107.933 44.4796L107.95 45.4358L107.965 46.4717L107.977 47.611L107.986 48.8923L107.993 50.3869L107.998 52.2586L108 55.178L108 57.9999Z" fill="white"/>
</g>
<defs>
<filter id="filter0_d" x="0" y="0" width="116" height="116" filterUnits="userSpaceOnUse" color-interpolation-filters="sRGB">
<feFlood flood-opacity="0" result="BackgroundImageFix"/>
<feColorMatrix in="SourceAlpha" type="matrix" values="0 0 0 0 0 0 0 0 0 0 0 0 0 0 0 0 0 0 127 0"/>
<feOffset/>
<feGaussianBlur stdDeviation="4"/>
<feColorMatrix type="matrix" values="0 0 0 0 0 0 0 0 0 0 0 0 0 0 0 0 0 0 0.8 0"/>
<feBlend mode="normal" in2="BackgroundImageFix" result="effect1_dropShadow"/>
<feBlend mode="normal" in="SourceGraphic" in2="effect1_dropShadow" result="shape"/>
</filter>
</defs>
</svg>
