<svg width="112" height="114" viewBox="0 0 112 114" fill="none" xmlns="http://www.w3.org/2000/svg">
<g filter="url(#filter0_d)">
<path fill-rule="evenodd" clip-rule="evenodd" d="M100 49.9999L99.9987 54.9999L99.995 57.0708L99.9887 58.6595L99.98 59.9986L99.9687 61.1779L99.955 62.2437L99.9387 63.2233L99.9199 64.1345L99.8987 64.9898L99.8749 65.7981L99.8486 66.5663L99.8199 67.2997L99.7886 68.0023L99.7548 68.6777L99.7185 69.3285L99.6796 69.9573L99.6383 70.5658L99.5944 71.1559L99.548 71.7289L99.4991 72.2861L99.4477 72.8286L99.3937 73.3575L99.3372 73.8734L99.2782 74.3773L99.2166 74.8698L99.1525 75.3515L99.0859 75.823L99.0167 76.2847L98.9449 76.7372L98.8706 77.1808L98.7938 77.616L98.7143 78.043L98.6323 78.4623L98.5477 78.8741L98.4606 79.2787L98.3708 79.6763L98.2785 80.0672L98.1836 80.4515L98.0861 80.8296L97.9859 81.2016L97.8832 81.5677L97.7778 81.928L97.6698 82.2827L97.5592 82.632L97.4459 82.9759L97.33 83.3146L97.2114 83.6483L97.0902 83.9771L96.9663 84.301L96.8397 84.6202L96.7104 84.9348L96.5784 85.2448L96.4437 85.5504L96.3063 85.8516L96.1661 86.1485L96.0232 86.4412L95.8775 86.7298L95.7291 87.0143L95.5779 87.2947L95.424 87.5713L95.2672 87.8439L95.1076 88.1128L94.9451 88.3778L94.7799 88.6391L94.6117 88.8968L94.4407 89.1508L94.2668 89.4013L94.09 89.6482L93.9103 89.8916L93.7276 90.1315L93.542 90.368L93.3533 90.6012L93.1617 90.831L92.9671 91.0574L92.7694 91.2806L92.5686 91.5006L92.3648 91.7173L92.1578 91.9308L91.9477 92.1412L91.7345 92.3484L91.518 92.5525L91.2983 92.7535L91.0754 92.9514L90.8492 93.1463L90.6196 93.3381L90.3868 93.527L90.1505 93.7129L89.9108 93.8958L89.6677 94.0758L89.4211 94.2528L89.1709 94.4269L88.9172 94.5982L88.6598 94.7665L88.3988 94.932L88.134 95.0947L87.8655 95.2545L87.5932 95.4115L87.3169 95.5657L87.0368 95.7172L86.7526 95.8658L86.4644 96.0117L86.172 96.1548L85.8754 96.2952L85.5745 96.4328L85.2693 96.5677L84.9597 96.6999L84.6455 96.8294L84.3266 96.9562L84.0031 97.0804L83.6747 97.2018L83.3414 97.3206L83.0031 97.4367L82.6596 97.5502L82.3107 97.6611L81.9565 97.7693L81.5966 97.8748L81.231 97.9778L80.8595 98.0781L80.4819 98.1759L80.098 98.271L79.7077 98.3635L79.3106 98.4535L78.9066 98.5409L78.4954 98.6256L78.0768 98.7078L77.6503 98.7875L77.2158 98.8646L76.7729 98.9391L76.3211 99.011L75.8601 99.0804L75.3894 99.1473L74.9086 99.2116L74.417 99.2734L73.914 99.3326L73.399 99.3893L72.8713 99.4434L72.3299 99.4951L71.7739 99.5442L71.2021 99.5908L70.6135 99.6348L70.0065 99.6764L69.3794 99.7154L68.7304 99.7519L68.0571 99.7859L67.3567 99.8174L66.626 99.8464L65.8607 99.8729L65.0558 99.8968L64.2046 99.9183L63.2982 99.9373L62.3246 99.9537L61.2666 99.9677L60.0976 99.9791L58.7737 99.9881L57.2102 99.9945L55.1952 99.9985L51.4109 99.9999L45.2032 99.9989L43.0713 99.9953L41.456 99.9893L40.1013 99.9807L38.9113 99.9697L37.8376 99.9561L36.8519 99.9401L35.9357 99.9215L35.0764 99.9004L34.2646 99.8769L33.4934 99.8508L32.7575 99.8222L32.0525 99.7911L31.3751 99.7575L30.7223 99.7214L30.0919 99.6828L29.4818 99.6416L28.8904 99.598L28.3161 99.5518L27.7576 99.5031L27.214 99.4518L26.6841 99.3981L26.1671 99.3418L25.6623 99.283L25.1689 99.2216L24.6864 99.1577L24.2141 99.0912L23.7516 99.0222L23.2984 98.9507L22.8541 98.8766L22.4183 98.7999L21.9906 98.7207L21.5707 98.6389L21.1583 98.5545L20.7532 98.4676L20.355 98.3781L19.9636 98.2859L19.5787 98.1912L19.2001 98.0939L18.8277 97.994L18.4611 97.8914L18.1004 97.7863L17.7452 97.6785L17.3956 97.5681L17.0512 97.455L16.712 97.3393L16.3779 97.2209L16.0488 97.0999L15.7245 96.9762L15.4049 96.8498L15.09 96.7207L14.7796 96.5889L14.4737 96.4545L14.1722 96.3173L13.8749 96.1773L13.5819 96.0346L13.293 95.8892L13.0082 95.741L12.7274 95.59L12.4505 95.4363L12.1775 95.2797L11.9084 95.1203L11.6431 94.9581L11.3814 94.7931L11.1235 94.6252L10.8692 94.4544L10.6184 94.2807L10.3713 94.1042L10.1276 93.9247L9.88736 93.7422L9.65057 93.5568L9.41716 93.3684L9.1871 93.177L8.96036 92.9826L8.73691 92.7852L8.51672 92.5847L8.29975 92.3811L8.08598 92.1744L7.87537 91.9645L7.66792 91.7515L7.46358 91.5353L7.26233 91.3159L7.06415 91.0932L6.86902 90.8673L6.67692 90.638L6.48782 90.4054L6.30171 90.1694L6.11856 89.93L5.93836 89.6872L5.76108 89.4408L5.58672 89.1909L5.41525 88.9375L5.24665 88.6804L5.08092 88.4197L4.91804 88.1552L4.75799 87.887L4.60076 87.615L4.44633 87.339L4.2947 87.0592L4.14584 86.7753L3.99975 86.4874L3.85642 86.1954L3.71583 85.8991L3.57797 85.5986L3.44283 85.2938L3.31041 84.9844L3.18069 84.6706L3.05366 84.3522L2.92932 84.029L2.80765 83.701L2.68865 83.3681L2.57231 83.0302L2.45861 82.6871L2.34756 82.3387L2.23915 81.9849L2.13336 81.6255L2.0302 81.2603L1.92965 80.8893L1.8317 80.5122L1.73636 80.1288L1.64362 79.739L1.55347 79.3425L1.4659 78.939L1.38091 78.5284L1.2985 78.1103L1.21866 77.6845L1.14138 77.2507L1.06667 76.8084L0.994507 76.3574L0.924902 75.8971L0.857845 75.4272L0.793333 74.9472L0.731364 74.4565L0.671932 73.9545L0.615035 73.4405L0.56067 72.9137L0.508835 72.3735L0.459525 71.8186L0.412739 71.2482L0.368475 70.661L0.326729 70.0555L0.2875 69.4301L0.250785 68.7829L0.216583 68.1116L0.184892 67.4135L0.155711 66.6853L0.129037 65.923L0.10487 65.1215L0.0832084 64.2742L0.0640508 63.3726L0.0473965 62.4049L0.0332445 61.3544L0.0215942 60.1956L0.012445 58.8864L0.00579644 57.3469L0.00164817 55.3833L0 51.9953L0.000851839 45.4154L0.00420373 43.2164L0.0100558 41.5733L0.0184085 40.2022L0.029262 39.0012L0.0426171 37.9196L0.0584743 36.9276L0.0768344 36.0064L0.0976984 35.1429L0.121067 34.3276L0.146942 33.5534L0.175325 32.8148L0.206216 32.1076L0.239618 31.4281L0.275532 30.7734L0.31396 30.1413L0.354904 29.5297L0.398366 28.9368L0.444349 28.3612L0.492854 27.8015L0.543885 27.2567L0.597444 26.7257L0.653534 26.2078L0.712157 25.702L0.773318 25.2078L0.83702 24.7244L0.903266 24.2513L0.972059 23.7881L1.0434 23.3341L1.1173 22.8891L1.19376 22.4526L1.27279 22.0243L1.35438 21.6038L1.43855 21.1909L1.52529 20.7852L1.61462 20.3865L1.70654 19.9945L1.80105 19.6091L1.89816 19.23L1.99788 18.8571L2.10022 18.4901L2.20517 18.1289L2.31274 17.7733L2.42295 17.4232L2.53581 17.0784L2.6513 16.7388L2.76946 16.4043L2.89028 16.0748L3.01377 15.7501L3.13994 15.4302L3.2688 15.1149L3.40036 14.8041L3.53463 14.4979L3.67162 14.196L3.81134 13.8984L3.95379 13.605L4.09901 13.3158L4.24698 13.0306L4.39773 12.7495L4.55127 12.4724L4.7076 12.1991L4.86675 11.9297L5.02873 11.664L5.19355 11.4021L5.36123 11.1439L5.53179 10.8893L5.70523 10.6382L5.88157 10.3908L6.06084 10.1468L6.24305 9.90633L6.42822 9.66926L6.61636 9.43558L6.80751 9.20526L7.00167 8.97826L7.19887 8.75455L7.39914 8.53409L7.60249 8.31687L7.80895 8.10284L8.01855 7.89199L8.23131 7.68428L8.44726 7.47969L8.66642 7.2782L8.88883 7.07978L9.11452 6.88441L9.34352 6.69207L9.57585 6.50273L9.81157 6.31638L10.0507 6.133L10.2933 5.95256L10.5393 5.77505L10.7889 5.60046L11.0421 5.42876L11.2989 5.25994L11.5593 5.09398L11.8235 4.93087L12.0914 4.77059L12.3631 4.61314L12.6387 4.45849L12.9183 4.30663L13.2018 4.15755L13.4894 4.01124L13.7811 3.86769L14.077 3.72688L14.3772 3.58881L14.6817 3.45346L14.9907 3.32082L15.3041 3.19088L15.6222 3.06364L15.945 2.93908L16.2726 2.8172L16.6051 2.69799L16.9426 2.58144L17.2853 2.46753L17.6333 2.35627L17.9867 2.24765L18.3456 2.14165L18.7103 2.03828L19.0808 1.93752L19.4575 1.83937L19.8403 1.74382L20.2296 1.65087L20.6256 1.56051L21.0285 1.47274L21.4385 1.38755L21.856 1.30493L22.2812 1.22488L22.7144 1.1474L23.1559 1.07248L23.6063 1.00012L24.0658 0.930312L24.5349 0.863052L25.0141 0.798338L25.5039 0.736166L26.005 0.676532L26.518 0.619434L27.0437 0.564867L27.5829 0.51283L28.1365 0.46332L28.7056 0.416333L29.2915 0.371868L29.8955 0.329921L30.5192 0.290492L31.1646 0.253577L31.8339 0.219175L32.5297 0.187284L33.2554 0.157903L34.0148 0.13103L34.813 0.106663L35.6563 0.084802L36.5532 0.065445L37.5151 0.0485914L38.5583 0.0342402L39.7072 0.0223907L41.0023 0.0130423L42.5188 0.00619462L44.4347 0.00184726L47.5561 0L54.362 0.000652757L56.6351 0.00380556L58.3077 0.00945857L59.6956 0.0176121L60.9079 0.0282665L61.9978 0.0414223L62.9961 0.0570802L63.9224 0.075241L64.7901 0.0959056L65.6089 0.119075L66.3862 0.14475L67.1274 0.172933L67.8371 0.203625L68.5187 0.236826L69.1752 0.27254L69.809 0.310768L70.4222 0.351512L71.0165 0.394773L71.5935 0.440555L72.1544 0.488859L72.7003 0.539689L73.2324 0.593046L73.7513 0.648934L74.258 0.707356L74.7532 0.768315L75.2374 0.831814L75.7113 0.897857L76.1753 0.966448L76.6299 1.03759L77.0757 1.11129L77.5128 1.18754L77.9418 1.26636L78.3629 1.34775L78.7764 1.43171L79.1827 1.51825L79.5819 1.60737L79.9744 1.69909L80.3603 1.79339L80.7399 1.8903L81.1133 1.98981L81.4808 2.09193L81.8425 2.19667L82.1985 2.30404L82.549 2.41404L82.8942 2.52668L83.2342 2.64197L83.5691 2.75991L83.899 2.88052L84.2241 3.00379L84.5444 3.12975L84.8601 3.2584L85.1712 3.38974L85.4778 3.5238L85.78 3.66057L86.078 3.80007L86.3717 3.94231L86.6612 4.0873L86.9467 4.23505L87.2281 4.38558L87.5056 4.5389L87.7792 4.69501L88.0489 4.85394L88.3149 5.01569L88.5771 5.18029L88.8356 5.34774L89.0905 5.51806L89.3418 5.69127L89.5895 5.86738L89.8338 6.04642L90.0745 6.22839L90.3119 6.41332L90.5458 6.60123L90.7764 6.79213L91.0037 6.98606L91.2277 7.18302L91.4484 7.38304L91.6658 7.58614L91.8801 7.79236L92.0912 8.00171L92.2992 8.21421L92.504 8.4299L92.7058 8.64881L92.9044 8.87096L93.1 9.09639L93.2926 9.32512L93.4822 9.55719L93.6688 9.79263L93.8524 10.0315L94.0331 10.2738L94.2108 10.5196L94.3856 10.7689L94.5576 11.0218L94.7266 11.2783L94.8928 11.5384L95.0561 11.8023L95.2166 12.0699L95.3743 12.3413L95.5292 12.6166L95.6813 12.8958L95.8306 13.179L95.9771 13.4663L96.1209 13.7577L96.2619 14.0533L96.4002 14.3531L96.5358 14.6573L96.6686 14.9658L96.7988 15.279L96.9262 15.5967L97.051 15.9191L97.1731 16.2463L97.2925 16.5784L97.4093 16.9155L97.5234 17.2578L97.6349 17.6053L97.7437 17.9583L97.8499 18.3168L97.9535 18.681L98.0545 19.0511L98.1528 19.4272L98.2486 19.8096L98.3417 20.1984L98.4323 20.5938L98.5203 20.9961L98.6057 21.4056L98.6885 21.8224L98.7687 22.247L98.8464 22.6795L98.9215 23.1204L98.9941 23.57L99.0641 24.0288L99.1316 24.4971L99.1965 24.9755L99.2589 25.4645L99.3187 25.9647L99.376 26.4767L99.4308 27.0013L99.483 27.5394L99.5327 28.0918L99.5799 28.6597L99.6246 29.2442L99.6667 29.8466L99.7064 30.4687L99.7435 31.1123L99.7781 31.7796L99.8102 32.4732L99.8397 33.1964L99.8668 33.9529L99.8914 34.7478L99.9134 35.5873L99.933 36.4796L99.9501 37.4358L99.9646 38.4717L99.9767 39.611L99.9862 40.8923L99.9932 42.3869L99.9978 44.2586L99.9998 47.178L100 49.9999Z" fill="white"/>
</g>
<defs>
<filter id="filter0_d" x="0" y="0" width="112" height="114" filterUnits="userSpaceOnUse" color-interpolation-filters="sRGB">
<feFlood flood-opacity="0" result="BackgroundImageFix"/>
<feColorMatrix in="SourceAlpha" type="matrix" values="0 0 0 0 0 0 0 0 0 0 0 0 0 0 0 0 0 0 127 0"/>
<feOffset dx="8" dy="10"/>
<feGaussianBlur stdDeviation="2"/>
<feColorMatrix type="matrix" values="0 0 0 0 0 0 0 0 0 0 0 0 0 0 0 0 0 0 0.41 0"/>
<feBlend mode="normal" in2="BackgroundImageFix" result="effect1_dropShadow"/>
<feBlend mode="normal" in="SourceGraphic" in2="effect1_dropShadow" result="shape"/>
</filter>
</defs>
</svg>
