<svg width="52" height="52" viewBox="0 0 52 52" fill="none" xmlns="http://www.w3.org/2000/svg">
<path d="M24.2927 26.957L12.5017 48.2778H21.7375L24.2927 26.957Z" fill="#2F80ED"/>
<path d="M26.2787 27.1597L38.0228 48.2775H28.787L26.2787 27.1597Z" fill="#2F80ED"/>
<path d="M33.605 40.0574L28.1428 29.895L27.2704 30.3999L33.1991 48.2777H38.0228L34.0925 40.9638" fill="#77B1FF"/>
<path d="M22.8966 30.7549L17.334 47.8398H21.7988L24.185 30.9224L22.8966 30.7549Z" fill="#77B1FF"/>
<path d="M27.6806 21.6385L36.5437 12.7754" stroke="#9B9B9A" stroke-width="2" stroke-linecap="round" stroke-linejoin="round"/>
<path d="M13.915 35.4243L23.3711 25.9683" stroke="#9B9B9A" stroke-width="2" stroke-linecap="round" stroke-linejoin="round"/>
<path d="M41.1074 23.7808H28.0952" stroke="#9B9B9A" stroke-width="2" stroke-linecap="round" stroke-linejoin="round"/>
<path d="M36.5531 35.1547L27.1772 25.7788" stroke="#9B9B9A" stroke-width="2" stroke-linecap="round" stroke-linejoin="round"/>
<path d="M22.4965 23.7944H9.0921" stroke="#9B9B9A" stroke-width="2" stroke-linecap="round" stroke-linejoin="round"/>
<path d="M23.2606 21.8825L13.905 12.5269" stroke="#9B9B9A" stroke-width="2" stroke-linecap="round" stroke-linejoin="round"/>
<path d="M25.662 20.9814V7.57764" stroke="#9B9B9A" stroke-width="2" stroke-linecap="round" stroke-linejoin="round"/>
<path d="M25.0856 41.8318C34.9996 41.8318 43.0364 33.795 43.0364 23.881C43.0364 13.967 34.9996 5.93018 25.0856 5.93018C15.1716 5.93018 7.13477 13.967 7.13477 23.881C7.13477 33.795 15.1716 41.8318 25.0856 41.8318Z" stroke="#9B9B9A" stroke-miterlimit="10"/>
<path d="M8.43697 18.3249C10.267 18.3249 11.7505 16.8413 11.7505 15.0113C11.7505 13.1813 10.267 11.6978 8.43697 11.6978C6.60694 11.6978 5.12341 13.1813 5.12341 15.0113C5.12341 16.8413 6.60694 18.3249 8.43697 18.3249Z" fill="#F4AA41"/>
<path d="M30.4207 10.1154C32.2508 10.1154 33.7343 8.63186 33.7343 6.80184C33.7343 4.97181 32.2508 3.48828 30.4207 3.48828C28.5907 3.48828 27.1072 4.97181 27.1072 6.80184C27.1072 8.63186 28.5907 10.1154 30.4207 10.1154Z" fill="#F4AA41"/>
<path d="M43.9948 26.6109C45.8456 26.6109 47.346 25.1106 47.346 23.2598C47.346 21.409 45.8456 19.9087 43.9948 19.9087C42.1441 19.9087 40.6437 21.409 40.6437 23.2598C40.6437 25.1106 42.1441 26.6109 43.9948 26.6109Z" fill="#F4AA41"/>
<path d="M34.6017 43.4083C36.4524 43.4083 37.9528 41.9079 37.9528 40.0572C37.9528 38.2064 36.4524 36.7061 34.6017 36.7061C32.7509 36.7061 31.2505 38.2064 31.2505 40.0572C31.2505 41.9079 32.7509 43.4083 34.6017 43.4083Z" fill="#F4AA41"/>
<path d="M9.49074 37.3532C11.3208 37.3532 12.8043 35.8697 12.8043 34.0396C12.8043 32.2096 11.3208 30.7261 9.49074 30.7261C7.66071 30.7261 6.17719 32.2096 6.17719 34.0396C6.17719 35.8697 7.66071 37.3532 9.49074 37.3532Z" fill="#F4AA41"/>
<path d="M22.8965 40.0574L23.9604 26.957" stroke="black" stroke-linecap="round" stroke-linejoin="round"/>
<path d="M22.1664 45.2355L21.7374 48.2775H12.5016L16.3063 41.1982" stroke="black" stroke-linecap="round" stroke-linejoin="round"/>
<path d="M23.9604 26.957L17.6923 38.6195" stroke="black" stroke-linecap="round" stroke-linejoin="round"/>
<path d="M27.6279 40.0575L26.0664 26.7896" stroke="black" stroke-linecap="round" stroke-linejoin="round"/>
<path d="M28.3754 45.3586L28.787 48.2778H38.0228L35.3376 43.3335" stroke="black" stroke-linecap="round" stroke-linejoin="round"/>
<path d="M26.0664 26.7896L31.9771 37.113" stroke="black" stroke-linecap="round" stroke-linejoin="round"/>
<path d="M43.7998 26.605C43.1656 30.9791 41.0163 34.992 37.7267 37.9439" stroke="black" stroke-linecap="round" stroke-linejoin="round"/>
<path d="M34.1473 7.28076C36.5163 8.57586 38.581 10.3624 40.203 12.5207C41.825 14.679 42.9669 17.1591 43.5521 19.7947" stroke="black" stroke-linecap="round" stroke-linejoin="round"/>
<path d="M10.4288 11.9339C12.2003 9.75642 14.4352 8.00153 16.9707 6.79711C19.5063 5.59269 22.2786 4.96907 25.0856 4.97169C25.7313 4.97153 26.3766 5.00408 27.019 5.06919" stroke="black" stroke-linecap="round" stroke-linejoin="round"/>
<path d="M7.55224 30.9737C5.92909 26.9439 5.73613 22.4795 7.00551 18.3247" stroke="black" stroke-linecap="round" stroke-linejoin="round"/>
<path d="M31.6065 41.6361C28.1215 42.9122 24.3383 43.136 20.7271 42.2795C17.116 41.423 13.8362 39.5241 11.2955 36.8188" stroke="black" stroke-linecap="round" stroke-linejoin="round"/>
<path d="M26.8399 26.1157C26.3199 26.4596 25.6999 26.6201 25.0783 26.5717C24.4567 26.5232 23.8691 26.2687 23.4086 25.8483C22.9481 25.428 22.6411 24.866 22.5363 24.2514C22.4315 23.6368 22.5348 23.0048 22.83 22.4556C23.1251 21.9064 23.5952 21.4715 24.1656 21.2198C24.736 20.968 25.3741 20.9139 25.9787 21.066C26.5833 21.2181 27.1199 21.5677 27.5033 22.0594C27.8867 22.551 28.095 23.1566 28.0951 23.7801" stroke="black" stroke-miterlimit="10" stroke-linecap="round"/>
<path d="M27.4221 21.379L36.2844 12.5166" stroke="black" stroke-linecap="round" stroke-linejoin="round"/>
<path d="M13.6564 35.1648L23.1125 25.7095" stroke="black" stroke-linecap="round" stroke-linejoin="round"/>
<path d="M23.002 22.1413L13.6464 12.7856" stroke="black" stroke-linecap="round" stroke-linejoin="round"/>
<path d="M36.2945 35.4142L26.9179 26.0376" stroke="black" stroke-linecap="round" stroke-linejoin="round"/>
<path d="M22.4965 24.1606H9.09204" stroke="black" stroke-linecap="round" stroke-linejoin="round"/>
<path d="M40.6437 24.146H28.0951" stroke="black" stroke-linecap="round" stroke-linejoin="round"/>
<path d="M25.2958 20.9814V7.57764" stroke="black" stroke-linecap="round" stroke-linejoin="round"/>
<path d="M8.43697 18.3249C10.267 18.3249 11.7505 16.8413 11.7505 15.0113C11.7505 13.1813 10.267 11.6978 8.43697 11.6978C6.60694 11.6978 5.12341 13.1813 5.12341 15.0113C5.12341 16.8413 6.60694 18.3249 8.43697 18.3249Z" stroke="black" stroke-miterlimit="10"/>
<path d="M30.4207 10.1154C32.2507 10.1154 33.7342 8.63186 33.7342 6.80184C33.7342 4.97181 32.2507 3.48828 30.4207 3.48828C28.5906 3.48828 27.1071 4.97181 27.1071 6.80184C27.1071 8.63186 28.5906 10.1154 30.4207 10.1154Z" stroke="black" stroke-miterlimit="10"/>
<path d="M47.346 23.2599C47.346 24.1487 46.9929 25.001 46.3644 25.6295C45.736 26.2579 44.8836 26.611 43.9948 26.611C43.9289 26.611 43.8639 26.6091 43.7998 26.6052C43.1465 26.5671 42.5185 26.3386 41.9936 25.9477C41.4686 25.5569 41.0696 25.0208 40.8458 24.4058C40.622 23.7908 40.5831 23.1237 40.7341 22.4869C40.8851 21.85 41.2192 21.2713 41.6953 20.8222C42.1713 20.3731 42.7685 20.0732 43.4131 19.9596C44.0576 19.846 44.7213 19.9236 45.3223 20.1828C45.9232 20.4421 46.4351 20.8716 46.7947 21.4184C47.1543 21.9653 47.346 22.6054 47.346 23.2599Z" stroke="black" stroke-miterlimit="10"/>
<path d="M37.9528 40.0572C37.9528 40.72 37.7562 41.3679 37.388 41.9189C37.0198 42.47 36.4964 42.8996 35.8841 43.1532C35.2717 43.4068 34.5979 43.4732 33.9479 43.3439C33.2978 43.2146 32.7007 42.8954 32.2321 42.4268C31.7634 41.9581 31.4442 41.361 31.3149 40.7109C31.1856 40.0609 31.252 39.3871 31.5056 38.7748C31.7593 38.1624 32.1888 37.639 32.7399 37.2708C33.291 36.9026 33.9389 36.7061 34.6017 36.7061C35.4904 36.7062 36.3426 37.0594 36.971 37.6878C37.5995 38.3162 37.9526 39.1685 37.9528 40.0572V40.0572Z" stroke="black" stroke-miterlimit="10"/>
<path d="M9.49068 37.3532C11.3207 37.3532 12.8042 35.8697 12.8042 34.0396C12.8042 32.2096 11.3207 30.7261 9.49068 30.7261C7.66065 30.7261 6.17712 32.2096 6.17712 34.0396C6.17712 35.8697 7.66065 37.3532 9.49068 37.3532Z" stroke="black" stroke-miterlimit="10"/>
</svg>
