<svg width="44" height="44" viewBox="0 0 44 44" fill="none" xmlns="http://www.w3.org/2000/svg">
<path fill-rule="evenodd" clip-rule="evenodd" d="M43.8274 21.9137L43.8268 24.105L43.8252 25.0126L43.8225 25.709L43.8186 26.2958L43.8137 26.8127L43.8077 27.2798L43.8005 27.7091L43.7923 28.1085L43.783 28.4834L43.7726 28.8376L43.7611 29.1743L43.7485 29.4957L43.7347 29.8037L43.7199 30.0997L43.704 30.3849L43.687 30.6605L43.6689 30.9272L43.6496 31.1858L43.6293 31.4369L43.6079 31.6811L43.5853 31.9189L43.5617 32.1507L43.5369 32.3768L43.5111 32.5977L43.4841 32.8135L43.456 33.0246L43.4268 33.2312L43.3964 33.4336L43.365 33.6319L43.3324 33.8264L43.2987 34.0171L43.2639 34.2043L43.228 34.388L43.1909 34.5685L43.1527 34.7458L43.1134 34.9201L43.0729 35.0914L43.0313 35.2598L42.9886 35.4255L42.9447 35.5886L42.8997 35.749L42.8535 35.9069L42.8061 36.0624L42.7577 36.2155L42.708 36.3662L42.6572 36.5147L42.6052 36.6609L42.5521 36.805L42.4978 36.947L42.4423 37.0869L42.3856 37.2247L42.3278 37.3606L42.2688 37.4945L42.2085 37.6265L42.1471 37.7567L42.0845 37.8849L42.0206 38.0114L41.9556 38.1361L41.8893 38.259L41.8218 38.3802L41.7531 38.4997L41.6832 38.6176L41.612 38.7337L41.5396 38.8483L41.4659 38.9612L41.3909 39.0725L41.3147 39.1823L41.2372 39.2905L41.1584 39.3972L41.0784 39.5023L40.997 39.606L40.9143 39.7082L40.8304 39.8089L40.7451 39.9081L40.6584 40.006L40.5704 40.1023L40.4811 40.1973L40.3904 40.2909L40.2983 40.3831L40.2048 40.4739L40.11 40.5634L40.0137 40.6515L39.916 40.7382L39.8168 40.8236L39.7162 40.9077L39.6142 40.9905L39.5106 41.0719L39.4056 41.1521L39.299 41.231L39.1909 41.3086L39.0813 41.3849L38.9701 41.4599L38.8573 41.5337L38.7429 41.6063L38.6269 41.6776L38.5092 41.7476L38.3898 41.8164L38.2687 41.884L38.146 41.9504L38.0214 42.0155L37.8951 42.0794L37.7669 42.1422L37.637 42.2037L37.5051 42.264L37.3713 42.3231L37.2356 42.3811L37.0979 42.4378L36.9582 42.4934L36.8164 42.5478L36.6725 42.6011L36.5264 42.6531L36.3781 42.704L36.2275 42.7538L36.0747 42.8023L35.9194 42.8498L35.7617 42.896L35.6015 42.9412L35.4386 42.9851L35.2731 43.028L35.1049 43.0697L34.9338 43.1102L34.7598 43.1496L34.5827 43.1879L34.4025 43.2251L34.219 43.2611L34.0321 43.296L33.8417 43.3298L33.6476 43.3624L33.4496 43.394L33.2475 43.4244L33.0412 43.4537L32.8305 43.4819L32.615 43.509L32.3946 43.5349L32.1689 43.5598L31.9376 43.5835L31.7003 43.6061L31.4566 43.6277L31.2061 43.6481L30.9481 43.6674L30.682 43.6856L30.4072 43.7027L30.1228 43.7187L29.8277 43.7336L29.5207 43.7474L29.2004 43.7601L28.8651 43.7717L28.5123 43.7822L28.1392 43.7916L27.742 43.7999L27.3153 43.8071L26.8515 43.8133L26.3392 43.8183L25.759 43.8222L25.0737 43.825L24.1906 43.8268L22.5321 43.8274L19.8114 43.8269L18.877 43.8254L18.1691 43.8227L17.5753 43.819L17.0538 43.8141L16.5832 43.8082L16.1512 43.8012L15.7497 43.793L15.3731 43.7838L15.0173 43.7735L14.6793 43.762L14.3567 43.7495L14.0478 43.7359L13.7509 43.7211L13.4648 43.7053L13.1885 43.6884L12.9211 43.6704L12.6619 43.6512L12.4102 43.631L12.1654 43.6096L11.9272 43.5872L11.6949 43.5636L11.4684 43.5389L11.2471 43.5132L11.0309 43.4863L10.8194 43.4583L10.6124 43.4291L10.4097 43.3989L10.2111 43.3675L10.0164 43.3351L9.82534 43.3015L9.6379 43.2667L9.45387 43.2309L9.27314 43.1939L9.09558 43.1558L8.92108 43.1166L8.74954 43.0762L8.58085 43.0347L8.41492 42.992L8.25168 42.9482L8.09104 42.9033L7.93293 42.8572L7.77728 42.81L7.62402 42.7616L7.4731 42.712L7.32445 42.6613L7.17803 42.6094L7.03377 42.5564L6.89164 42.5022L6.75158 42.4468L6.61356 42.3902L6.47753 42.3324L6.34345 42.2735L6.21129 42.2134L6.08101 42.152L5.95258 42.0895L5.82596 42.0258L5.70114 41.9608L5.57807 41.8947L5.45673 41.8273L5.3371 41.7587L5.21915 41.6888L5.10285 41.6177L4.98819 41.5454L4.87514 41.4718L4.76368 41.3969L4.65379 41.3208L4.54546 41.2434L4.43866 41.1648L4.33337 41.0848L4.22959 41.0035L4.1273 40.921L4.02647 40.8371L3.9271 40.7519L3.82916 40.6654L3.73266 40.5775L3.63756 40.4883L3.54387 40.3977L3.45157 40.3057L3.36065 40.2123L3.27109 40.1176L3.18289 40.0214L3.09603 39.9238L3.01051 39.8248L2.92632 39.7243L2.84344 39.6224L2.76187 39.5189L2.68161 39.414L2.60263 39.3076L2.52493 39.1996L2.44851 39.0901L2.37336 38.979L2.29947 38.8663L2.22684 38.7521L2.15545 38.6362L2.0853 38.5186L2.01639 38.3994L1.94871 38.2785L1.88225 38.1558L1.81701 38.0314L1.75299 37.9052L1.69017 37.7772L1.62855 37.6474L1.56813 37.5157L1.5089 37.3821L1.45087 37.2465L1.39401 37.109L1.33834 36.9694L1.28385 36.8278L1.23052 36.684L1.17837 36.5381L1.12738 36.39L1.07755 36.2396L1.02888 36.0869L0.981361 35.9319L0.934997 35.7743L0.889782 35.6143L0.845713 35.4517L0.802788 35.2864L0.761003 35.1184L0.720356 34.9475L0.680844 34.7738L0.642466 34.5969L0.605218 34.417L0.569099 34.2337L0.534106 34.0471L0.500238 33.857L0.467492 33.6632L0.435867 33.4655L0.40536 33.2638L0.375971 33.0578L0.347697 32.8474L0.320538 32.6324L0.29449 32.4123L0.269554 32.1871L0.245727 31.9562L0.223009 31.7194L0.201398 31.4763L0.180893 31.2263L0.161493 30.9689L0.143197 30.7035L0.126004 30.4294L0.109913 30.1458L0.0949228 29.8516L0.0810335 29.5456L0.068244 29.2265L0.0565537 28.8924L0.0459619 28.5411L0.0364681 28.1697L0.0280718 27.7746L0.0207726 27.3505L0.0145702 26.8901L0.00946418 26.3822L0.00545432 25.8084L0.00254043 25.1337L0.000722351 24.2731L0 22.7882L0.000373339 19.9044L0.00184239 18.9407L0.00440722 18.2205L0.00806796 17.6196L0.0128248 17.0932L0.018678 16.6192L0.0256278 16.1844L0.0336745 15.7807L0.0428187 15.4022L0.0530607 15.0449L0.064401 14.7056L0.0768403 14.3819L0.0903792 14.0719L0.105018 13.7741L0.120759 13.4872L0.1376 13.2102L0.155545 12.9421L0.174594 12.6822L0.194746 12.43L0.216005 12.1847L0.238371 11.9459L0.261844 11.7132L0.286427 11.4862L0.31212 11.2645L0.338925 11.0479L0.366844 10.8361L0.395878 10.6287L0.426028 10.4257L0.457297 10.2268L0.489685 10.0317L0.523196 9.84041L0.55783 9.65268L0.59359 9.46839L0.630478 9.28741L0.668497 9.1096L0.707647 8.93486L0.747932 8.76308L0.789354 8.59416L0.831916 8.42802L0.875621 8.26457L0.92047 8.10373L0.966468 7.94542L1.01362 7.78957L1.06192 7.63613L1.11138 7.48502L1.162 7.3362L1.21378 7.18959L1.26673 7.04517L1.32086 6.90287L1.37615 6.76265L1.43263 6.62446L1.49029 6.48827L1.54914 6.35404L1.60917 6.22173L1.67041 6.0913L1.73285 5.96272L1.79649 5.83597L1.86134 5.711L1.92741 5.58779L1.9947 5.46632L2.06322 5.34655L2.13297 5.22846L2.20396 5.11203L2.2762 4.99724L2.34969 4.88407L2.42444 4.77248L2.50045 4.66247L2.57774 4.55401L2.65631 4.44709L2.73617 4.34169L2.81732 4.23779L2.89978 4.13537L2.98355 4.03443L3.06865 3.93494L3.15508 3.83689L3.24285 3.74027L3.33197 3.64507L3.42246 3.55127L3.51432 3.45886L3.60757 3.36782L3.70221 3.27816L3.79827 3.18985L3.89574 3.10289L3.99466 3.01726L4.09502 2.93296L4.19685 2.84998L4.30016 2.76831L4.40496 2.68793L4.51127 2.60885L4.61912 2.53106L4.72851 2.45454L4.83946 2.37928L4.952 2.30529L5.06615 2.23256L5.18192 2.16107L5.29935 2.09083L5.41844 2.02182L5.53923 1.95404L5.66175 1.88748L5.78601 1.82215L5.91205 1.75802L6.0399 1.69511L6.16959 1.6334L6.30115 1.57288L6.43461 1.51356L6.57001 1.45543L6.7074 1.39848L6.8468 1.34272L6.98827 1.28813L7.13185 1.23471L7.27757 1.18246L7.42551 1.13138L7.5757 1.08146L7.72821 1.03269L7.88309 0.985085L8.04041 0.93863L8.20023 0.893324L8.36264 0.849164L8.5277 0.806147L8.6955 0.764272L8.86613 0.723534L9.03967 0.683932L9.21625 0.645463L9.39595 0.608126L9.57891 0.571917L9.76525 0.536834L9.95512 0.502876L10.1487 0.470041L10.346 0.438327L10.5474 0.407732L10.753 0.378253L10.963 0.349891L11.1777 0.322642L11.3973 0.296507L11.6222 0.271482L11.8526 0.247567L12.0889 0.22476L12.3315 0.203061L12.5809 0.182468L12.8377 0.16298L13.1024 0.144596L13.3758 0.127315L13.6586 0.111136L13.952 0.0960588L14.2569 0.0820819L14.575 0.0692049L14.9078 0.057427L15.2576 0.0467478L15.6273 0.0371665L16.0203 0.0286829L16.4419 0.0212963L16.8991 0.0150066L17.4026 0.00981325L17.9702 0.00571611L18.6349 0.00271494L19.4746 0.000809605L20.8426 0L23.8255 0.000286086L24.8217 0.00166788L25.5548 0.00414545L26.163 0.00771891L26.6943 0.0123885L27.172 0.0181543L27.6095 0.0250168L28.0155 0.0329762L28.3958 0.0420329L28.7547 0.0521875L29.0953 0.0634404L29.4202 0.0757921L29.7312 0.0892434L30.03 0.103795L30.3177 0.119447L30.5955 0.136202L30.8642 0.154058L31.1247 0.173019L31.3776 0.193084L31.6234 0.214254L31.8627 0.236532L32.0958 0.259917L32.3233 0.284411L32.5454 0.310016L32.7624 0.336733L32.9746 0.364563L33.1823 0.393508L33.3857 0.423569L33.5849 0.454749L33.7803 0.487048L33.9719 0.520469L34.1599 0.555014L34.3444 0.590684L34.5257 0.627483L34.7037 0.665411L34.8787 0.704471L35.0507 0.744666L35.2198 0.785997L35.3862 0.828468L35.5499 0.872082L35.7109 0.91684L35.8694 0.962746L36.0255 1.0098L36.1791 1.05801L36.3304 1.10738L36.4794 1.15791L36.6262 1.2096L36.7708 1.26246L36.9132 1.31649L37.0536 1.37169L37.192 1.42807L37.3283 1.48564L37.4627 1.54439L37.5952 1.60433L37.7257 1.66547L37.8545 1.72781L37.9814 1.79136L38.1065 1.85612L38.2298 1.92209L38.3514 1.98928L38.4713 2.0577L38.5896 2.12736L38.7061 2.19825L38.821 2.27039L38.9343 2.34378L39.0461 2.41842L39.1562 2.49434L39.2648 2.57152L39.3718 2.64999L39.4773 2.72974L39.5814 2.81079L39.6839 2.89315L39.785 2.97682L39.8846 3.06181L39.9827 3.14813L40.0794 3.2358L40.1748 3.32481L40.2687 3.41519L40.3612 3.50694L40.4523 3.60008L40.5421 3.69461L40.6305 3.79055L40.7176 3.88791L40.8033 3.98671L40.8877 4.08696L40.9708 4.18867L41.0526 4.29186L41.1331 4.39654L41.2123 4.50274L41.2902 4.61046L41.3668 4.71972L41.4421 4.83055L41.5162 4.94297L41.5891 5.05699L41.6606 5.17263L41.731 5.28992L41.8001 5.40888L41.868 5.52954L41.9346 5.65191L42.0001 5.77604L42.0643 5.90193L42.1273 6.02964L42.1891 6.15918L42.2497 6.29059L42.3091 6.4239L42.3673 6.55915L42.4244 6.69637L42.4802 6.83561L42.5349 6.97692L42.5884 7.12032L42.6408 7.26588L42.692 7.41363L42.742 7.56364L42.7908 7.71596L42.8385 7.87065L42.8851 8.02778L42.9305 8.1874L42.9747 8.3496L43.0178 8.51444L43.0598 8.68202L43.1006 8.85242L43.1403 9.02573L43.1789 9.20206L43.2163 9.38151L43.2526 9.56421L43.2878 9.75028L43.3218 9.93985L43.3547 10.1331L43.3866 10.3301L43.4172 10.5312L43.4468 10.7365L43.4753 10.9461L43.5026 11.1604L43.5288 11.3796L43.5539 11.6041L43.5779 11.834L43.6008 12.0698L43.6226 12.3119L43.6433 12.5608L43.6629 12.817L43.6813 13.081L43.6987 13.3537L43.715 13.6357L43.7301 13.9282L43.7442 14.2322L43.7572 14.5491L43.769 14.8807L43.7798 15.2291L43.7895 15.597L43.798 15.9881L43.8055 16.4071L43.8119 16.8611L43.8172 17.3605L43.8214 17.9221L43.8244 18.5771L43.8264 19.3974L43.8273 20.6769L43.8274 21.9137Z" fill="white"/>
</svg>
